<svg xmlns="http://www.w3.org/2000/svg" viewBox="0 0 64 64">
  <path fill="#ff7c73" d="M55 31c6 16-6 29-22 30C16 62 1 51 3 35 4 22 16 18 29 8 40 0 50 18 55 31Z"/>
  <g fill="#fff8ed">
    <ellipse cx="32" cy="40" rx="11" ry="8.5" transform="rotate(-6 32 40)"/>
    <ellipse cx="20" cy="30" rx="5" ry="6" transform="rotate(-30 20 30)"/>
    <ellipse cx="31" cy="24.5" rx="5" ry="6.2"/>
    <ellipse cx="43" cy="29" rx="5" ry="6" transform="rotate(29 43 29)"/>
  </g>
  <path fill="#ffd663" d="m54 6 1.3 3.7L59 11l-3.7 1.3L54 16l-1.3-3.7L49 11l3.7-1.3L54 6Z"/>
</svg>
